# xmcd CD database file
#
# Track frame offsets:
#	150
#	13473
#	27798
#
# Disc length: 619 seconds
#
# Revision: 0
# Processed by: cddbd v1.5.1PL0 Copyright (c) Steve Scherf et al.
# Submitted via: CDex 1.40Release
#
DISCID=1d026903
DTITLE=Hoi Festa - バリバリ HOT
DYEAR=2005
DGENRE=JPop
TTITLE0=バリバリ HOT
TTITLE1=おnewのSHOES
TTITLE2=メガネ
EXTD=YEAR: 2005
EXTT0=
EXTT1=
EXTT2=
PLAYORDER=
